<?xml version="1.0" encoding="UTF-8"?>
<svg id="Layer_1" data-name="Layer 1" xmlns="http://www.w3.org/2000/svg" version="1.1" viewBox="0 0 70 70">
  <defs>
    <style>
      .cls-1 {
        fill: #333;
        stroke-width: 0px;
      }

      .cls-2 {
        fill: none;
        stroke: #42e8b4;
        stroke-linecap: round;
        stroke-linejoin: round;
        stroke-width: 2.7px;
      }
    </style>
  </defs>
  <path class="cls-1" d="M5.835,58.032c-3.051,0-5.533-2.482-5.533-5.533v-1.458c0-.639.521-1.158,1.157-1.158h4.676V17.501c0-3.051,2.482-5.533,5.533-5.533h46.664c3.051,0,5.533,2.482,5.533,5.533v32.382h4.675c.31,0,.602.121.82.34.218.219.338.509.338.818v1.458c0,3.051-2.481,5.533-5.532,5.533H5.835ZM2.619,52.499c0,1.773,1.442,3.217,3.216,3.217h58.33c1.773,0,3.217-1.443,3.217-3.217v-.3h-24.61l-1.119,1.119c-.22.219-.511.34-.819.34h-11.665c-.309,0-.6-.121-.819-.34l-1.119-1.119H2.619v.3ZM11.668,14.285c-1.773,0-3.216,1.442-3.216,3.216v32.382h53.097V17.501c0-1.773-1.443-3.216-3.217-3.216H11.668Z"/>
  <g>
    <g>
      <path class="cls-2" d="M15.317,42.367h38.715"/>
      <path class="cls-2" d="M24.195,38.99v3.377h-4.192v-8.776h4.192v5.4Z"/>
    </g>
    <path class="cls-2" d="M32.578,33.901v8.466h-4.192v-17.29h4.192v8.825Z"/>
    <path class="cls-2" d="M45.154,28.079v14.287h4.192v-20.565h-4.192v6.278Z"/>
    <path class="cls-2" d="M40.962,29.661h-4.192v12.706h4.192v-12.706Z"/>
  </g>
</svg>