<?xml version="1.0" encoding="UTF-8"?>
<svg id="Layer_1" data-name="Layer 1" xmlns="http://www.w3.org/2000/svg" version="1.1" viewBox="0 0 70 70">
  <defs>
    <style>
      .cls-1 {
        fill: #333;
      }

      .cls-1, .cls-2 {
        stroke-width: 0px;
      }

      .cls-2 {
        fill: #42e8b4;
      }
    </style>
  </defs>
  <path class="cls-2" d="M54.33,18.27c-.345,0-.669-.135-.911-.378-.243-.24-.378-.564-.378-.91s.134-.666.377-.91c.423-.423.655-.985.655-1.585s-.233-1.162-.655-1.585c-.501-.503-.5-1.321,0-1.824.244-.242.567-.375.91-.375s.668.135.911.377c.908.907,1.408,2.115,1.408,3.405s-.5,2.499-1.408,3.407c-.241.244-.565.378-.91.378Z"/>
  <path class="cls-2" d="M57.23,21.059c-.342,0-.666-.135-.911-.377-.502-.503-.502-1.319,0-1.822,1.168-1.166,1.81-2.72,1.81-4.373s-.643-3.208-1.809-4.373c-.243-.242-.378-.566-.378-.91s.134-.668.377-.912c.245-.242.568-.377.911-.377s.668.135.911.377c1.652,1.653,2.562,3.854,2.562,6.195s-.91,4.542-2.562,6.195c-.247.244-.57.377-.91.377Z"/>
  <path class="cls-2" d="M60.313,23.975c-.342,0-.666-.135-.91-.378-.244-.24-.378-.564-.378-.91s.135-.666.378-.908c1.949-1.95,3.022-4.539,3.022-7.29s-1.073-5.342-3.022-7.29c-.243-.244-.378-.568-.378-.91s.135-.668.378-.912c.243-.242.567-.377.911-.377s.667.135.91.377c2.436,2.436,3.777,5.672,3.777,9.112s-1.341,6.674-3.777,9.11c-.243.242-.567.377-.91.377Z"/>
  <path class="cls-2" d="M15.671,18.27c-.345,0-.669-.135-.911-.378-.91-.91-1.412-2.12-1.412-3.405s.502-2.497,1.412-3.409c.244-.242.567-.375.911-.375s.668.135.911.377c.501.501.501,1.319,0,1.822-.424.423-.657.985-.657,1.583s.234,1.164.657,1.587c.502.501.502,1.318,0,1.82-.241.244-.565.378-.911.378Z"/>
  <path class="cls-2" d="M12.77,21.059c-.342,0-.666-.135-.91-.378-1.652-1.652-2.563-3.85-2.563-6.194s.91-4.544,2.562-6.195c.243-.242.567-.377.911-.377s.668.135.911.377c.243.244.377.568.377.912s-.134.666-.377.91c-2.412,2.412-2.412,6.335,0,8.747.501.503.501,1.319,0,1.822-.247.244-.57.377-.912.377Z"/>
  <path class="cls-2" d="M9.688,23.975c-.342,0-.666-.135-.91-.378-5.023-5.021-5.023-13.195,0-18.22.242-.242.565-.377.909-.377s.667.135.911.377c.244.244.378.566.378.91s-.134.668-.377.912c-1.944,1.943-3.014,4.53-3.015,7.288,0,2.758,1.07,5.347,3.014,7.29.243.242.378.566.378.91s-.134.668-.377.912c-.247.244-.57.377-.911.377Z"/>
  <path class="cls-1" d="M6.289,65c-.71,0-1.289-.578-1.289-1.287s.579-1.289,1.289-1.289h7.415L29.828,19.81h-2.736v2.776c0,.711-.578,1.289-1.289,1.289h-4c-.71,0-1.288-.578-1.288-1.289V6.389c0-.711.578-1.289,1.288-1.289h4c.711,0,1.289.578,1.289,1.289v2.776h4.619v-2.776c0-.711.578-1.289,1.288-1.289h4.001c.71,0,1.288.578,1.288,1.289v2.776h4.62v-2.776c0-.711.578-1.289,1.289-1.289h4c.71,0,1.288.578,1.288,1.289v16.195c0,.711-.578,1.289-1.288,1.289h-4c-.711,0-1.289-.578-1.289-1.289v-2.776h-2.735l16.124,42.615h7.415c.71,0,1.288.579,1.288,1.29s-.578,1.287-1.288,1.287H6.289ZM51.225,62.423l-14.937-10.157v10.157h14.937ZM33.713,62.423v-10.157l-14.937,10.157h14.937ZM17.239,60.356l13.58-9.234h-10.086l-3.494,9.234ZM52.76,60.354l-3.493-9.233h-10.083l13.576,9.233ZM48.292,48.546l-2.172-5.742-7.331,5.742h9.503ZM31.212,48.544l-7.331-5.739-2.172,5.739h9.504ZM36.288,47.235l8.329-6.523-8.329-6.524v13.047ZM33.713,47.235v-13.047l-8.329,6.524,8.329,6.523ZM43.871,36.857l-1.482-3.915h-3.518l5,3.915ZM26.129,36.857l5-3.915h-3.518l-1.482,3.915ZM41.415,30.365l-.912-2.412-2.4,2.412h3.312ZM31.897,30.365l-2.398-2.412-.914,2.412h3.313ZM33.712,28.541v-4.668h-.713c-.591,0-1.103-.404-1.245-.98l-.134-.545-1.121,2.961,3.214,3.233ZM36.288,28.539l3.214-3.232-1.121-2.962-.134.547c-.142.576-.654.98-1.245.98h-.713v4.667ZM46.909,21.297V7.678h-1.425v13.62h1.425ZM35.712,21.297V7.678h-1.424v13.62h1.424ZM24.516,21.297V7.676h-1.425v13.622h1.425ZM42.908,17.232v-5.493h-4.62v5.493h4.62ZM31.711,17.232v-5.493h-4.619v5.493h4.619Z"/>
</svg>