<?xml version="1.0" encoding="UTF-8"?>
<svg id="Layer_1" data-name="Layer 1" xmlns="http://www.w3.org/2000/svg" version="1.1" viewBox="0 0 70 70">
  <defs>
    <style>
      .cls-1 {
        stroke: #42e8b4;
      }

      .cls-1, .cls-2 {
        fill: none;
        stroke-linecap: round;
        stroke-linejoin: round;
        stroke-width: 2.825px;
      }

      .cls-2 {
        stroke: #333;
      }
    </style>
  </defs>
  <path class="cls-2" d="M3.99,63.609c0,.897.786,1.633,1.751,1.633h4.913c.965,0,1.751-.736,1.751-1.633v-16.187c0-.9-.786-1.636-1.751-1.636h-4.913c-.961,0-1.751.736-1.751,1.636v16.187h0ZM23.475,55.705l8.193,2.194c5.935,1.587,6.296-4.792,1.311-6.693l-3.348-1.279c-3.373-1.29-7.529-.643-13.879-.643h-3.348v12.46l10.62,4.102c1.308.407,4.867-.014,7.582-.489l21.211-3.702c4.352-.757,2.219-6.007-2.834-5.481l-13.564,1.408"/>
  <g>
    <path class="cls-1" d="M66.01,26.201v3.795h-3.427c-.497,2.473-1.472,4.777-2.823,6.807l2.423,2.423-5.363,5.363-2.423-2.423c-2.063,1.376-4.376,2.335-6.807,2.823v3.427h-7.586v-3.427c-2.432-.489-4.746-1.447-6.811-2.823l-2.423,2.423-5.363-5.363,2.423-2.423c-1.375-2.064-2.334-4.376-2.823-6.807h-3.423v-7.586h3.423c.489-2.432,1.447-4.746,2.823-6.811l-2.423-2.423,5.363-5.363,2.423,2.423c2.065-1.375,4.378-2.334,6.811-2.823v-3.423h7.586v3.423c2.431.489,4.743,1.448,6.807,2.823l2.423-2.423,5.363,5.363-2.423,2.423c1.375,2.065,2.334,4.378,2.823,6.811h3.427v3.791h0Z"/>
    <path class="cls-1" d="M56.216,26.201c0-6.857-5.56-12.417-12.421-12.417s-12.417,5.56-12.417,12.417,5.56,12.421,12.417,12.421,12.421-5.56,12.421-12.421h0Z"/>
  </g>
</svg>