<?xml version="1.0" encoding="UTF-8"?>
<svg id="Layer_1" data-name="Layer 1" xmlns="http://www.w3.org/2000/svg" version="1.1" viewBox="0 0 70 70">
  <defs>
    <style>
      .cls-1 {
        stroke: #333;
      }

      .cls-1, .cls-2 {
        fill: none;
        stroke-linecap: round;
        stroke-linejoin: round;
        stroke-width: 2.7px;
      }

      .cls-2 {
        stroke: #42e8b4;
      }
    </style>
  </defs>
  <path class="cls-1" d="M35,61.554h0c-2.796,0-5.064-2.267-5.064-5.064v-1.544h10.128v1.544c0,2.796-2.267,5.064-5.064,5.064Z"/>
  <path class="cls-2" d="M8.46,23.412c1.28-5.928,4.501-11.141,8.962-14.94"/>
  <path class="cls-2" d="M52.579,8.472c4.461,3.799,7.682,9.012,8.962,14.94"/>
  <path class="cls-2" d="M14.81,25.344c.862-4.589,3.256-8.644,6.627-11.614"/>
  <path class="cls-2" d="M48.563,13.731c3.372,2.97,5.765,7.025,6.627,11.614"/>
  <path class="cls-1" d="M48.935,39.854v-10.707c0-7.696-6.239-13.935-13.935-13.935h0c-7.696,0-13.935,6.239-13.935,13.935v10.707c0,2.176-.805,4.275-2.26,5.894h0c-1.455,1.618-2.26,3.718-2.26,5.894v2.363c0,.52.422.942.942.942h35.026c.52,0,.942-.422.942-.942h0v-2.363c0-2.176-.805-4.275-2.26-5.894h0c-1.455-1.618-2.26-3.718-2.26-5.894Z"/>
  <path class="cls-1" d="M18.024,48.339h34.648"/>
  <path class="cls-1" d="M31.696,15.47v-3.72c0-1.825,1.479-3.304,3.304-3.304s3.304,1.479,3.304,3.304v3.72"/>
</svg>